<svg xmlns="http://www.w3.org/2000/svg" viewBox="0 0 1400 1200" font-family="Segoe UI, Arial, sans-serif">
  <defs>
    <pattern id="hA" patternUnits="userSpaceOnUse" width="17" height="18" x="88" y="298"><circle cx="0" cy="0" r="2.1" fill="#b9b09a"/></pattern>
    <pattern id="hB" patternUnits="userSpaceOnUse" width="17" height="18" x="88" y="406"><circle cx="0" cy="0" r="2.1" fill="#b9b09a"/></pattern>
    <pattern id="r1" patternUnits="userSpaceOnUse" width="17" height="8" x="88" y="246"><circle cx="0" cy="4" r="2.1" fill="#c9a9a0"/></pattern>
    <pattern id="r2" patternUnits="userSpaceOnUse" width="17" height="8" x="88" y="258"><circle cx="0" cy="4" r="2.1" fill="#a0aac9"/></pattern>
    <pattern id="r3" patternUnits="userSpaceOnUse" width="17" height="8" x="88" y="502"><circle cx="0" cy="4" r="2.1" fill="#c9a9a0"/></pattern>
    <pattern id="r4" patternUnits="userSpaceOnUse" width="17" height="8" x="88" y="514"><circle cx="0" cy="4" r="2.1" fill="#a0aac9"/></pattern>
  </defs>
  <rect x="0" y="0" width="1400" height="1200" fill="#ffffff"/>
  <text x="30" y="38" font-size="25" font-weight="700" fill="#1a1a1a">Задача 06 — Сигнальные делители датчика (10k+5k / 10k → GPIO34/35): вид макетки</text>
  <text x="30" y="63" font-size="14.5" fill="#666">Два одинаковых делителя гасят 0–5В датчика до 0–2В (линейная зона АЦП). Скорость → GPIO34, направление → GPIO35. верх 10k+5k (=15k), низ 10k, 100нФ на узле — фильтр.</text>
  <g font-size="13.5" fill="#333"><line x1="30" y1="87" x2="62" y2="87" stroke="#0e9488" stroke-width="4"/><text x="70" y="92">сигнал датчика 0–5В</text><line x1="232.8" y1="87" x2="264.8" y2="87" stroke="#e58f2a" stroke-width="4"/><text x="272.8" y="92">делённый → GPIO (0–2В)</text><line x1="457.20000000000005" y1="87" x2="489.20000000000005" y2="87" stroke="#1a1a1a" stroke-width="4"/><text x="497.20000000000005" y="92">GND «−» (общая земля)</text><rect x="674.4000000000001" y="79" width="18" height="14" fill="#6aa9e0"/><text x="698.4000000000001" y="92">АЦП 34/35</text><rect x="789.2" y="79" width="18" height="14" fill="#ddd"/><text x="813.2" y="92">уже собрано (01–05)</text><circle cx="981.0" cy="87" r="5" fill="#d23b2e"/><circle cx="993.0" cy="87" r="5" fill="#111"/><text x="1003.0" y="92">мультиметр</text></g>
  <!-- BREADBOARD (стандарт) -->
  <rect x="74" y="232" width="1004" height="298" rx="12" fill="#f4f0e6" stroke="#d8d2c0" stroke-width="2"/>
  <rect x="78" y="242" width="992" height="2" fill="#d23b2e"/>
  <rect x="78" y="270" width="992" height="2" fill="#2a5bd7"/>
  <rect x="78" y="498" width="992" height="2" fill="#d23b2e"/>
  <rect x="78" y="526" width="992" height="2" fill="#2a5bd7"/>
  <text x="60" y="254" font-size="13" fill="#d23b2e" font-weight="700">+</text>
  <text x="60" y="266" font-size="13" fill="#2a5bd7" font-weight="700">−</text>
  <text x="60" y="510" font-size="13" fill="#d23b2e" font-weight="700">+</text>
  <text x="60" y="524" font-size="13" fill="#2a5bd7" font-weight="700">−</text>
  <rect x="80" y="246" width="986" height="8" fill="url(#r1)"/>
  <rect x="80" y="258" width="986" height="8" fill="url(#r2)"/>
  <rect x="80" y="290" width="986" height="88" fill="url(#hA)"/>
  <rect x="80" y="398" width="986" height="88" fill="url(#hB)"/>
  <rect x="80" y="502" width="986" height="8" fill="url(#r3)"/>
  <rect x="80" y="514" width="986" height="8" fill="url(#r4)"/>
  <rect x="74" y="380" width="1004" height="16" fill="#e9e3d3"/>
  <g font-size="11" fill="#999">
    <text x="66" y="302">a</text><text x="66" y="320">b</text><text x="66" y="338">c</text><text x="66" y="356">d</text><text x="66" y="374">e</text>
    <text x="66" y="410">f</text><text x="66" y="428">g</text><text x="66" y="446">h</text><text x="66" y="464">i</text><text x="66" y="482">j</text>
  </g>
  <g font-size="10" fill="#aaa" text-anchor="middle">
    <text x="411" y="286">20</text><text x="496" y="286">25</text><text x="581" y="286">30</text><text x="666" y="286">35</text>
    <text x="751" y="286">40</text><text x="836" y="286">45</text><text x="921" y="286">50</text><text x="1006" y="286">55</text>
  </g>
  <g font-size="10" font-weight="700" fill="#2a6fd1" text-anchor="middle"><text x="343" y="396">16</text><text x="377" y="396">18</text><text x="411" y="396">20</text><text x="955" y="396">52</text><text x="989" y="396">54</text><text x="1023" y="396">56</text></g>
  <rect x="982" y="399" width="14" height="86" rx="7" fill="rgba(42,111,209,.10)" stroke="#2a6fd1" stroke-opacity=".5" stroke-dasharray="4 3"/><text x="989" y="497" font-size="10" font-weight="700" fill="#2a6fd1" text-anchor="middle">узел·54</text><rect x="370" y="399" width="14" height="86" rx="7" fill="rgba(42,111,209,.10)" stroke="#2a6fd1" stroke-opacity=".5" stroke-dasharray="4 3"/><text x="377" y="497" font-size="10" font-weight="700" fill="#2a6fd1" text-anchor="middle">узел·18</text>
  <!-- ESP32 DevKit V1 (стандарт, DOIT 30-pin) -->
  <rect x="54" y="388" width="26" height="18" rx="3" fill="#b8b8b8" stroke="#888"/>
  <text x="34" y="382" font-size="10" fill="#666">USB-C</text>
  <rect x="80" y="316" width="262" height="160" rx="8" fill="#1f1f22" stroke="#000"/>
  <text x="150" y="360" font-size="15" fill="#f2f2f2" font-weight="700">ESP32 DevKit V1</text>
  <text x="150" y="378" font-size="11" fill="#9fd">GPIO34 скорость · GPIO35 направление (эта задача)</text>
  <text x="150" y="452" font-size="10" fill="#9aa">распиновка: DOIT DevKit V1 · 30 pin</text>
  <g stroke="#444"><rect x="82" y="311" width="12" height="10" rx="2" fill="#d23b2e"/><rect x="99" y="311" width="12" height="10" rx="2" fill="#999"/><rect x="116" y="311" width="12" height="10" rx="2" fill="#e8c14a"/><rect x="133" y="311" width="12" height="10" rx="2" fill="#e8c14a"/><rect x="150" y="311" width="12" height="10" rx="2" fill="#e8873a"/><rect x="167" y="311" width="12" height="10" rx="2" fill="#e0a81a"/><rect x="184" y="311" width="12" height="10" rx="2" fill="#34c24a"/><rect x="201" y="311" width="12" height="10" rx="2" fill="#2a7de1"/><rect x="218" y="311" width="12" height="10" rx="2" fill="#cfcfcf"/><rect x="235" y="311" width="12" height="10" rx="2" fill="#6aa9e0"/><rect x="252" y="311" width="12" height="10" rx="2" fill="#6aa9e0"/><rect x="269" y="311" width="12" height="10" rx="2" fill="#6aa9e0"/><rect x="286" y="311" width="12" height="10" rx="2" fill="#e8c14a"/><rect x="303" y="311" width="12" height="10" rx="2" fill="#e8c14a"/><rect x="320" y="311" width="12" height="10" rx="2" fill="#e8c14a"/></g>
  <g font-size="7.5" fill="#333" text-anchor="middle"><text x="88" y="308">VIN</text><text x="105" y="308">GND</text><text x="122" y="308">13</text><text x="139" y="308">12</text><text x="156" y="308">14</text><text x="173" y="308">27</text><text x="190" y="308">26</text><text x="207" y="308">25</text><text x="224" y="308">33</text><text x="241" y="308">32</text><text x="258" y="308">35</text><text x="275" y="308">34</text><text x="292" y="308">VN</text><text x="309" y="308">VP</text><text x="326" y="308">EN</text></g>
  <g stroke="#444"><rect x="82" y="471" width="12" height="10" rx="2" fill="#e8c14a"/><rect x="99" y="471" width="12" height="10" rx="2" fill="#e8c14a"/><rect x="116" y="471" width="12" height="10" rx="2" fill="#e8c14a"/><rect x="133" y="471" width="12" height="10" rx="2" fill="#e8c14a"/><rect x="150" y="471" width="12" height="10" rx="2" fill="#e8c14a"/><rect x="167" y="471" width="12" height="10" rx="2" fill="#e8c14a"/><rect x="184" y="471" width="12" height="10" rx="2" fill="#e8c14a"/><rect x="201" y="471" width="12" height="10" rx="2" fill="#e8c14a"/><rect x="218" y="471" width="12" height="10" rx="2" fill="#e8c14a"/><rect x="235" y="471" width="12" height="10" rx="2" fill="#e8c14a"/><rect x="252" y="471" width="12" height="10" rx="2" fill="#e8c14a"/><rect x="269" y="471" width="12" height="10" rx="2" fill="#e8c14a"/><rect x="286" y="471" width="12" height="10" rx="2" fill="#e8c14a"/><rect x="303" y="471" width="12" height="10" rx="2" fill="#e8c14a"/><rect x="320" y="471" width="12" height="10" rx="2" fill="#e8c14a"/></g>
  <g font-size="7.5" fill="#555" text-anchor="middle"><text x="88" y="493">3V3</text><text x="105" y="493">15</text><text x="122" y="493">2</text><text x="139" y="493">0</text><text x="156" y="493">4</text><text x="173" y="493">16</text><text x="190" y="493">17</text><text x="207" y="493">5</text><text x="224" y="493">18</text><text x="241" y="493">19</text><text x="258" y="493">21</text><text x="275" y="493">RX</text><text x="292" y="493">TX</text><text x="309" y="493">22</text><text x="326" y="493">23</text></g>
  <rect x="267" y="309" width="16" height="14" rx="3" fill="none" stroke="#e58f2a" stroke-width="2.4"/><rect x="250" y="309" width="16" height="14" rx="3" fill="none" stroke="#e58f2a" stroke-width="2.4"/>
  <line x1="955" y1="406" x2="958" y2="406" stroke="#9a8f6a" stroke-width="2"/><line x1="969" y1="406" x2="972" y2="406" stroke="#9a8f6a" stroke-width="2"/><rect x="958" y="400" width="11" height="12" rx="2" fill="#d9c79c" stroke="#9a8f6a"/><rect x="960.0" y="400" width="1.4" height="12" fill="#7a4a12"/><rect x="961.75" y="400" width="1.4" height="12" fill="#1a1a1a"/><rect x="963.5" y="400" width="1.4" height="12" fill="#1a1a1a"/><rect x="965.25" y="400" width="1.4" height="12" fill="#c00"/><rect x="967.0" y="400" width="1.4" height="12" fill="#7a4a12"/><circle cx="955" cy="406" r="3.4" fill="#333"/><circle cx="972" cy="406" r="3.4" fill="#333"/><text x="963" y="388" font-size="9" font-weight="700" fill="#8a6d3b" text-anchor="middle">10k</text><line x1="972" y1="406" x2="975" y2="406" stroke="#9a8f6a" stroke-width="2"/><line x1="986" y1="406" x2="989" y2="406" stroke="#9a8f6a" stroke-width="2"/><rect x="975" y="400" width="11" height="12" rx="2" fill="#d9c79c" stroke="#9a8f6a"/><rect x="977.0" y="400" width="1.4" height="12" fill="#2e8b3d"/><rect x="978.75" y="400" width="1.4" height="12" fill="#1a1a1a"/><rect x="980.5" y="400" width="1.4" height="12" fill="#1a1a1a"/><rect x="982.25" y="400" width="1.4" height="12" fill="#7a4a12"/><rect x="984.0" y="400" width="1.4" height="12" fill="#7a4a12"/><circle cx="972" cy="406" r="3.4" fill="#333"/><circle cx="989" cy="406" r="3.4" fill="#333"/><text x="980" y="388" font-size="9" font-weight="700" fill="#8a6d3b" text-anchor="middle">5k</text><circle cx="972" cy="406" r="3.6" fill="#333"/><line x1="989" y1="442" x2="996" y2="442" stroke="#9a8f6a" stroke-width="2"/><line x1="1016" y1="442" x2="1023" y2="442" stroke="#9a8f6a" stroke-width="2"/><rect x="996" y="436" width="20" height="12" rx="2" fill="#d9c79c" stroke="#9a8f6a"/><rect x="999.0" y="436" width="2.5" height="12" fill="#7a4a12"/><rect x="1002.3" y="436" width="2.5" height="12" fill="#1a1a1a"/><rect x="1005.7" y="436" width="2.5" height="12" fill="#1a1a1a"/><rect x="1009.0" y="436" width="2.5" height="12" fill="#c00"/><rect x="1012.3" y="436" width="2.5" height="12" fill="#7a4a12"/><circle cx="989" cy="442" r="3.4" fill="#333"/><circle cx="1023" cy="442" r="3.4" fill="#333"/><text x="1006" y="433" font-size="10.5" font-weight="700" fill="#8a6d3b" text-anchor="middle">10k</text><line x1="343" y1="406" x2="346" y2="406" stroke="#9a8f6a" stroke-width="2"/><line x1="357" y1="406" x2="360" y2="406" stroke="#9a8f6a" stroke-width="2"/><rect x="346" y="400" width="11" height="12" rx="2" fill="#d9c79c" stroke="#9a8f6a"/><rect x="348.0" y="400" width="1.4" height="12" fill="#7a4a12"/><rect x="349.75" y="400" width="1.4" height="12" fill="#1a1a1a"/><rect x="351.5" y="400" width="1.4" height="12" fill="#1a1a1a"/><rect x="353.25" y="400" width="1.4" height="12" fill="#c00"/><rect x="355.0" y="400" width="1.4" height="12" fill="#7a4a12"/><circle cx="343" cy="406" r="3.4" fill="#333"/><circle cx="360" cy="406" r="3.4" fill="#333"/><text x="351" y="388" font-size="9" font-weight="700" fill="#8a6d3b" text-anchor="middle">10k</text><line x1="360" y1="406" x2="363" y2="406" stroke="#9a8f6a" stroke-width="2"/><line x1="374" y1="406" x2="377" y2="406" stroke="#9a8f6a" stroke-width="2"/><rect x="363" y="400" width="11" height="12" rx="2" fill="#d9c79c" stroke="#9a8f6a"/><rect x="365.0" y="400" width="1.4" height="12" fill="#2e8b3d"/><rect x="366.75" y="400" width="1.4" height="12" fill="#1a1a1a"/><rect x="368.5" y="400" width="1.4" height="12" fill="#1a1a1a"/><rect x="370.25" y="400" width="1.4" height="12" fill="#7a4a12"/><rect x="372.0" y="400" width="1.4" height="12" fill="#7a4a12"/><circle cx="360" cy="406" r="3.4" fill="#333"/><circle cx="377" cy="406" r="3.4" fill="#333"/><text x="368" y="388" font-size="9" font-weight="700" fill="#8a6d3b" text-anchor="middle">5k</text><circle cx="360" cy="406" r="3.6" fill="#333"/><line x1="377" y1="442" x2="384" y2="442" stroke="#9a8f6a" stroke-width="2"/><line x1="404" y1="442" x2="411" y2="442" stroke="#9a8f6a" stroke-width="2"/><rect x="384" y="436" width="20" height="12" rx="2" fill="#d9c79c" stroke="#9a8f6a"/><rect x="387.0" y="436" width="2.5" height="12" fill="#7a4a12"/><rect x="390.3" y="436" width="2.5" height="12" fill="#1a1a1a"/><rect x="393.7" y="436" width="2.5" height="12" fill="#1a1a1a"/><rect x="397.0" y="436" width="2.5" height="12" fill="#c00"/><rect x="400.3" y="436" width="2.5" height="12" fill="#7a4a12"/><circle cx="377" cy="442" r="3.4" fill="#333"/><circle cx="411" cy="442" r="3.4" fill="#333"/><text x="394" y="433" font-size="10.5" font-weight="700" fill="#8a6d3b" text-anchor="middle">10k</text>
  <line x1="989" y1="460" x2="1001" y2="460" stroke="#9a8f6a" stroke-width="2.2"/><line x1="1011" y1="460" x2="1023" y2="460" stroke="#9a8f6a" stroke-width="2.2"/><path d="M1001 456 Q 1006 448 1011 456 L1011 464 Q 1006 472 1001 464 Z" fill="#e8b84b" stroke="#a8862c"/><text x="1006" y="463" font-size="8" fill="#4a3a10" text-anchor="middle">104</text><circle cx="989" cy="460" r="3.2" fill="#333"/><circle cx="1023" cy="460" r="3.2" fill="#333"/><text x="1006" y="479" font-size="10" fill="#8a6d3b" text-anchor="middle">C3</text><line x1="377" y1="460" x2="389" y2="460" stroke="#9a8f6a" stroke-width="2.2"/><line x1="399" y1="460" x2="411" y2="460" stroke="#9a8f6a" stroke-width="2.2"/><path d="M389 456 Q 394 448 399 456 L399 464 Q 394 472 389 464 Z" fill="#e8b84b" stroke="#a8862c"/><text x="394" y="463" font-size="8" fill="#4a3a10" text-anchor="middle">104</text><circle cx="377" cy="460" r="3.2" fill="#333"/><circle cx="411" cy="460" r="3.2" fill="#333"/><text x="394" y="479" font-size="10" fill="#8a6d3b" text-anchor="middle">C4</text>
  <line x1="1023" y1="478" x2="1023" y2="514" stroke="#1a1a1a" stroke-width="3.4" stroke-linecap="round"/><circle cx="1023" cy="478" r="3.5" fill="#1a1a1a"/><circle cx="1023" cy="514" r="4" fill="#1a1a1a"/><line x1="411" y1="478" x2="411" y2="514" stroke="#1a1a1a" stroke-width="3.4" stroke-linecap="round"/><circle cx="411" cy="478" r="3.5" fill="#1a1a1a"/><circle cx="411" cy="514" r="4" fill="#1a1a1a"/>
  <path d="M989 478 C 1050 440, 1050 236, 820 205 C 560 150, 360 250, 275 305" fill="none" stroke="#e58f2a" stroke-width="3.4" stroke-linecap="round"/><circle cx="989" cy="478" r="4" fill="#e58f2a"/><text x="360" y="196" font-size="10.5" font-weight="700" fill="#e58f2a">узел скорости → GPIO34</text><path d="M377 478 C 400 320, 320 250, 258 305" fill="none" stroke="#e58f2a" stroke-width="3.4" stroke-linecap="round"/><circle cx="377" cy="478" r="4" fill="#e58f2a"/><text x="415" y="300" font-size="10.5" font-weight="700" fill="#e58f2a">узел напр. → GPIO35</text>
  <g opacity="0.55">
  <rect x="440" y="620" width="360" height="150" rx="12" fill="#f4f0e6" stroke="#d8d2c0" stroke-width="2" stroke-dasharray="7 5"/>
  <text x="620.0" y="650" font-size="14" font-weight="700" fill="#1a1a1a" text-anchor="middle">Датчик ветра · Polycarbonate 0–5В</text>
  <text x="620.0" y="669" font-size="11" fill="#666" text-anchor="middle">подключается в задаче 07 · питание 12В от Boost#1 (задача 02 ✓)</text>
</g><circle cx="470" cy="620" r="6" fill="#0e9488" stroke="#7a5a1a" opacity="0.9"/><text x="470" y="610" font-size="8.5" font-weight="700" fill="#555" text-anchor="middle">НАПР</text><circle cx="590" cy="620" r="6" fill="#d23b2e" stroke="#7a5a1a" opacity="0.9"/><text x="590" y="610" font-size="8.5" font-weight="700" fill="#555" text-anchor="middle">12В+</text><circle cx="650" cy="620" r="6" fill="#1a1a1a" stroke="#7a5a1a" opacity="0.9"/><text x="650" y="610" font-size="8.5" font-weight="700" fill="#555" text-anchor="middle">GND</text><circle cx="770" cy="620" r="6" fill="#0e9488" stroke="#7a5a1a" opacity="0.9"/><text x="770" y="610" font-size="8.5" font-weight="700" fill="#555" text-anchor="middle">СКОР</text><g stroke-dasharray="6 4" opacity="0.7">
  <path d="M470 620 C 410 560, 380 540, 343 478" fill="none" stroke="#0e9488" stroke-width="2.8"/>
  <path d="M770 620 C 870 560, 930 540, 955 478" fill="none" stroke="#0e9488" stroke-width="2.8"/>
  <path d="M650 620 C 650 660, 700 560, 700 528" fill="none" stroke="#1a1a1a" stroke-width="2.8"/>
</g>
  <circle cx="343" cy="478" r="4" fill="#0e9488"/><circle cx="955" cy="478" r="4" fill="#0e9488"/>
  <text x="710" y="594" font-size="10" fill="#0a7a70" text-anchor="middle">сигналы 0–5В → верх делителей (в задаче 07)</text>
  <text x="590" y="690" font-size="9.5" fill="#888">GND датчика → «−» рельс (общая земля!)</text>
  <circle cx="1005" cy="470" r="5" fill="#d23b2e"/><circle cx="1017" cy="470" r="5" fill="#111"/><text x="1027" y="461" font-size="10.5" fill="#333" text-anchor="start">GPIO34 ≈ Vдатч×0.4 (оба узла так же)</text>
  <g font-size="12" fill="#333">
  <rect x="840" y="600" width="345" height="200" rx="10" fill="#fbf7ec" stroke="#e6d9b0"/>
  <text x="860" y="628" font-size="13.5" font-weight="700" fill="#8a6d3b">Как это считает прошивка</text>
  <text x="860" y="654" font-family="ui-monospace, Consolas, monospace" font-size="11" fill="#444">V_adc = V_датч × 10/(15+10) = V_датч × 0.4</text>
  <text x="860" y="678" font-family="ui-monospace, Consolas, monospace" font-size="11" fill="#444">V_датч = V_adc × SIGNAL_DIVIDER_RATIO (=2.5)</text>
  <text x="860" y="704" font-size="11" fill="#2e7d4f">5.0В датч → GPIO 2.0В → в линейной зоне АЦП</text>
  <text x="860" y="726" font-size="11" fill="#444">скорость = V_датч/5 × 60 м/с · напр = /5 × 360°</text>
  <text x="860" y="748" font-size="11" fill="#777">GPIO34=скорость, GPIO35=направление (ADC1, вход)</text>
  <text x="860" y="770" font-size="11" fill="#777">readSensors() усредняет 10 отсчётов, раз в 2 сек</text>
  <text x="860" y="790" font-size="10.5" fill="#c0392b">Верх 10k+5k (к датчику), низ 10k (к GND) — не менять!</text>
</g>
  <text x="30" y="850" font-size="17" font-weight="700" fill="#1a1a1a">Порядок монтажа (нижний банк, ряды f–j; два одинаковых делителя в свободных колонках):</text>
  <g font-size="13.5" fill="#333">
    <text x="30" y="874"><tspan font-weight="700" fill="#0e9488">Делитель СКОРОСТИ → GPIO34</tspan> (справа, свободные кол.52–56):</text>
    <text x="30" y="896">1.  <tspan font-weight="700">10k</tspan>: кол.<tspan font-weight="700" fill="#2a6fd1">52</tspan> (вход от датчика) → кол.<tspan font-weight="700" fill="#2a6fd1">53</tspan>. <tspan font-weight="700">5k</tspan>: кол.<tspan font-weight="700" fill="#2a6fd1">53</tspan> → кол.<tspan font-weight="700" fill="#2a6fd1">54</tspan> (узел). <tspan font-weight="700">10k</tspan>: кол.<tspan font-weight="700" fill="#2a6fd1">54</tspan> → кол.<tspan font-weight="700" fill="#2a6fd1">56</tspan>. <tspan font-weight="700">C3 100нФ</tspan>: кол.<tspan font-weight="700" fill="#2a6fd1">54</tspan> → кол.<tspan font-weight="700" fill="#2a6fd1">56</tspan>.</text>
    <text x="30" y="918">2.  Перемычка кол.<tspan font-weight="700" fill="#2a6fd1">56</tspan> → «−» рельс (GND). Оранжевый провод: кол.<tspan font-weight="700" fill="#2a6fd1">54</tspan> (узел) → пин <tspan font-weight="700" fill="#c47015">GPIO34</tspan>.</text>
    <text x="30" y="944"><tspan font-weight="700" fill="#0e9488">Делитель НАПРАВЛЕНИЯ → GPIO35</tspan> (слева, свободные кол.16–20):</text>
    <text x="30" y="966">3.  <tspan font-weight="700">10k</tspan>: кол.<tspan font-weight="700" fill="#2a6fd1">16</tspan> (вход) → кол.<tspan font-weight="700" fill="#2a6fd1">17</tspan>. <tspan font-weight="700">5k</tspan>: кол.<tspan font-weight="700" fill="#2a6fd1">17</tspan> → кол.<tspan font-weight="700" fill="#2a6fd1">18</tspan> (узел). <tspan font-weight="700">10k</tspan>: кол.<tspan font-weight="700" fill="#2a6fd1">18</tspan> → кол.<tspan font-weight="700" fill="#2a6fd1">20</tspan>. <tspan font-weight="700">C4 100нФ</tspan>: кол.<tspan font-weight="700" fill="#2a6fd1">18</tspan> → кол.<tspan font-weight="700" fill="#2a6fd1">20</tspan>.</text>
    <text x="30" y="988">4.  Перемычка кол.<tspan font-weight="700" fill="#2a6fd1">20</tspan> → «−» рельс (GND). Оранжевый провод: кол.<tspan font-weight="700" fill="#2a6fd1">18</tspan> (узел) → пин <tspan font-weight="700" fill="#c47015">GPIO35</tspan>.</text>
    <text x="30" y="1010">5.  Верхи делителей (кол.52 и кол.16) — <tspan font-weight="700" fill="#0e9488">сюда придут сигналы датчика</tspan> (0–5В) в задаче 07.</text>
    <text x="30" y="1032">6.  Проверка: подай на верх (кол.52/16) известное 5В → на узле мультиметр ≈ 2.0В (0.4×). Без датчика вход висит — норма.</text>
  </g>
  <rect x="30" y="1056" width="1340" height="128" rx="8" fill="#fbf7ec" stroke="#e6d9b0"/>
  <text x="46" y="1082" font-size="13.5" fill="#c0392b">⚠  <tspan font-weight="700">Верх 10k+5k (=15k) — к датчику, низ 10k — к GND.</tspan> Поменяешь местами — получишь ×1.67 вместо ×2.5, скорость/направление уедут.</text>
  <text x="46" y="1106" font-size="13.5" fill="#c0392b">⚠  <tspan font-weight="700">GND датчика обязан идти на общий «−» рельс.</tspan> Без общей земли АЦП намеряет мусор. GPIO34/35 — ADC1, только вход.</text>
  <text x="46" y="1130" font-size="13.5" fill="#8a6d3b">•  <tspan font-weight="700">Два делителя одинаковые</tspan> — по паре 10k+5k/10k + 100нФ (C3/C4, маркировка «104») на узле → GND: фильтр наводок с длинного кабеля мачты.</text>
  <text x="46" y="1154" font-size="13.5" fill="#2a6fd1">→  Полный тест — в задаче 07 (датчик + 12В). Тогда поля <tspan font-family="ui-monospace, Consolas, monospace">"speed"/"direction"</tspan> в API оживут. Дальше: 07 датчик → 08 корпус.</text>
  <text x="46" y="1175" font-size="11.5" fill="#999">Нажми на любую деталь на схеме — откроется её фото. ESP32 — точная распиновка DOIT DevKit V1 (30-pin).</text>
</svg>
